<svg width="132" height="74" viewBox="0 0 132 74" fill="none" xmlns="http://www.w3.org/2000/svg">
<path d="M4.624 38C4.10267 38 3.64933 37.8073 3.264 37.422C2.87867 37.0367 2.686 36.5833 2.686 36.062V15.118C2.686 14.5967 2.87867 14.1433 3.264 13.758C3.64933 13.3727 4.10267 13.18 4.624 13.18H5.474C6.06333 13.18 6.60733 13.3387 7.106 13.656C7.60467 13.9733 7.96733 14.3927 8.194 14.914L14.144 27.766C14.144 27.7887 14.1553 27.8 14.178 27.8C14.2007 27.8 14.212 27.7887 14.212 27.766L20.162 14.914C20.3887 14.3927 20.7513 13.9733 21.25 13.656C21.7487 13.3387 22.2927 13.18 22.882 13.18H23.868C24.3893 13.18 24.8427 13.3727 25.228 13.758C25.6133 14.1433 25.806 14.5967 25.806 15.118V36.062C25.806 36.5833 25.6133 37.0367 25.228 37.422C24.8427 37.8073 24.3893 38 23.868 38H23.12C22.5987 38 22.1453 37.8073 21.76 37.422C21.3747 37.0367 21.182 36.5833 21.182 36.062V21.272C21.182 21.2493 21.1707 21.238 21.148 21.238C21.1253 21.238 21.114 21.2493 21.114 21.272L17.034 30.01C16.7847 30.5313 16.3993 30.962 15.878 31.302C15.3793 31.6193 14.8467 31.778 14.28 31.778H14.076C13.5093 31.778 12.9653 31.6193 12.444 31.302C11.9453 30.962 11.5713 30.5313 11.322 30.01L7.242 21.272C7.242 21.2493 7.23067 21.238 7.208 21.238C7.18533 21.238 7.174 21.2493 7.174 21.272V36.062C7.174 36.5833 6.98133 37.0367 6.596 37.422C6.21067 37.8073 5.75733 38 5.236 38H4.624ZM41.2383 24.706C40.5809 23.754 39.5836 23.278 38.2463 23.278C36.9089 23.278 35.9003 23.754 35.2203 24.706C34.5629 25.6353 34.2343 27.12 34.2343 29.16C34.2343 31.2 34.5629 32.696 35.2203 33.648C35.9003 34.5773 36.9089 35.042 38.2463 35.042C39.5836 35.042 40.5809 34.5773 41.2383 33.648C41.9183 32.696 42.2583 31.2 42.2583 29.16C42.2583 27.12 41.9183 25.6353 41.2383 24.706ZM44.5703 35.96C43.0743 37.5467 40.9663 38.34 38.2463 38.34C35.5263 38.34 33.4069 37.5467 31.8883 35.96C30.3923 34.3507 29.6443 32.084 29.6443 29.16C29.6443 26.236 30.3923 23.9807 31.8883 22.394C33.4069 20.7847 35.5263 19.98 38.2463 19.98C40.9663 19.98 43.0743 20.7847 44.5703 22.394C46.0889 23.9807 46.8483 26.236 46.8483 29.16C46.8483 32.084 46.0889 34.3507 44.5703 35.96ZM58.0678 23.38C55.4611 23.38 54.1578 25.3067 54.1578 29.16C54.1578 31.0867 54.5091 32.5373 55.2118 33.512C55.9144 34.464 56.8664 34.94 58.0678 34.94C59.1331 34.94 60.0511 34.5887 60.8218 33.886C61.5924 33.1833 61.9778 32.3787 61.9778 31.472V26.848C61.9778 25.9413 61.5924 25.1367 60.8218 24.434C60.0511 23.7313 59.1331 23.38 58.0678 23.38ZM56.7078 38.34C54.6904 38.34 53.0131 37.524 51.6758 35.892C50.3384 34.2373 49.6698 31.9933 49.6698 29.16C49.6698 26.236 50.3044 23.9807 51.5738 22.394C52.8658 20.7847 54.5771 19.98 56.7078 19.98C58.6344 19.98 60.3344 20.6827 61.8078 22.088C61.8304 22.1107 61.8531 22.122 61.8758 22.122C61.8984 22.122 61.9098 22.1107 61.9098 22.088V14.438C61.9098 13.9167 62.1024 13.4633 62.4878 13.078C62.8731 12.6927 63.3264 12.5 63.8478 12.5H64.5278C65.0491 12.5 65.5024 12.6927 65.8878 13.078C66.2731 13.4633 66.4658 13.9167 66.4658 14.438V36.062C66.4658 36.5833 66.2731 37.0367 65.8878 37.422C65.5024 37.8073 65.0491 38 64.5278 38H64.1538C63.6098 38 63.1451 37.8187 62.7598 37.456C62.3971 37.0707 62.2044 36.606 62.1818 36.062L62.1478 35.824C62.1478 35.8013 62.1364 35.79 62.1138 35.79C62.0911 35.79 62.0684 35.8013 62.0458 35.824C60.5498 37.5013 58.7704 38.34 56.7078 38.34ZM78.5501 23.142C77.3941 23.142 76.4988 23.4707 75.8641 24.128C75.2521 24.7627 74.8668 25.794 74.7081 27.222C74.7081 27.4033 74.7988 27.494 74.9801 27.494H81.6441C81.8254 27.494 81.9161 27.4033 81.9161 27.222C81.8254 24.502 80.7034 23.142 78.5501 23.142ZM79.4001 38.34C76.4308 38.34 74.1414 37.5693 72.5321 36.028C70.9454 34.464 70.1521 32.1747 70.1521 29.16C70.1521 26.168 70.8661 23.89 72.2941 22.326C73.7221 20.762 75.7848 19.98 78.4821 19.98C83.5141 19.98 86.0981 22.836 86.2341 28.548C86.2568 29.092 86.0641 29.5453 85.6561 29.908C85.2481 30.2707 84.7721 30.452 84.2281 30.452H74.9461C74.7421 30.452 74.6628 30.554 74.7081 30.758C74.8668 32.2767 75.3654 33.3873 76.2041 34.09C77.0654 34.77 78.3121 35.11 79.9441 35.11C80.9641 35.11 82.0974 34.94 83.3441 34.6C83.7521 34.4867 84.1261 34.5547 84.4661 34.804C84.8288 35.0533 85.0101 35.3933 85.0101 35.824C85.0101 36.3453 84.8514 36.81 84.5341 37.218C84.2394 37.6033 83.8428 37.8413 83.3441 37.932C82.0748 38.204 80.7601 38.34 79.4001 38.34ZM91.8406 38C91.3193 38 90.866 37.8073 90.4806 37.422C90.0953 37.0367 89.9026 36.5833 89.9026 36.062V22.258C89.9026 21.7367 90.0953 21.2833 90.4806 20.898C90.866 20.5127 91.3193 20.32 91.8406 20.32H92.5206C93.042 20.32 93.4953 20.5127 93.8806 20.898C94.266 21.2833 94.4586 21.7367 94.4586 22.258V23.686C94.4586 23.7087 94.47 23.72 94.4926 23.72C94.538 23.72 94.5606 23.7087 94.5606 23.686C95.218 22.7793 96.0793 22.0427 97.1446 21.476C98.21 20.8867 99.3773 20.524 100.647 20.388C101.123 20.3427 101.531 20.5013 101.871 20.864C102.211 21.204 102.381 21.612 102.381 22.088C102.381 22.564 102.211 22.972 101.871 23.312C101.531 23.652 101.123 23.8447 100.647 23.89C96.6346 24.2073 94.6286 26.2473 94.6286 30.01V36.062C94.6286 36.5833 94.436 37.0367 94.0506 37.422C93.6653 37.8073 93.212 38 92.6906 38H91.8406ZM108.343 38C107.821 38 107.368 37.8073 106.983 37.422C106.597 37.0367 106.405 36.5833 106.405 36.062V22.258C106.405 21.7367 106.597 21.2833 106.983 20.898C107.368 20.5127 107.821 20.32 108.343 20.32H108.785C109.329 20.32 109.782 20.5127 110.145 20.898C110.53 21.2607 110.734 21.714 110.757 22.258V22.496C110.757 22.5187 110.768 22.53 110.791 22.53C110.813 22.53 110.836 22.5187 110.859 22.496C112.4 20.8187 114.202 19.98 116.265 19.98C118.327 19.98 119.823 20.5693 120.753 21.748C121.705 22.904 122.181 24.842 122.181 27.562V36.062C122.181 36.5833 121.988 37.0367 121.603 37.422C121.217 37.8073 120.764 38 120.243 38H119.665C119.143 38 118.69 37.8073 118.305 37.422C117.942 37.0367 117.761 36.5833 117.761 36.062V27.902C117.761 26.202 117.534 25.046 117.081 24.434C116.65 23.7993 115.868 23.482 114.735 23.482C113.805 23.482 112.944 23.8787 112.151 24.672C111.357 25.4653 110.961 26.3153 110.961 27.222V36.062C110.961 36.5833 110.768 37.0367 110.383 37.422C109.997 37.8073 109.544 38 109.023 38H108.343Z" fill="white"/>
<path d="M4.59 66C4.06867 66 3.61533 65.8073 3.23 65.422C2.86733 65.0367 2.686 64.5833 2.686 64.062V43.118C2.686 42.5967 2.86733 42.1433 3.23 41.758C3.61533 41.3727 4.06867 41.18 4.59 41.18H5.508C6.02933 41.18 6.48267 41.3727 6.868 41.758C7.25333 42.1433 7.446 42.5967 7.446 43.118V50.836C7.446 51.0173 7.53667 51.108 7.718 51.108H16.218C16.3993 51.108 16.49 51.0173 16.49 50.836V43.118C16.49 42.5967 16.6827 42.1433 17.068 41.758C17.4533 41.3727 17.9067 41.18 18.428 41.18H19.346C19.8673 41.18 20.3093 41.3727 20.672 41.758C21.0573 42.1433 21.25 42.5967 21.25 43.118V64.062C21.25 64.5833 21.0573 65.0367 20.672 65.422C20.3093 65.8073 19.8673 66 19.346 66H18.428C17.9067 66 17.4533 65.8073 17.068 65.422C16.6827 65.0367 16.49 64.5833 16.49 64.062V55.052C16.49 54.848 16.3993 54.746 16.218 54.746H7.718C7.53667 54.746 7.446 54.848 7.446 55.052V64.062C7.446 64.5833 7.25333 65.0367 6.868 65.422C6.48267 65.8073 6.02933 66 5.508 66H4.59ZM36.6895 52.706C36.0321 51.754 35.0348 51.278 33.6975 51.278C32.3601 51.278 31.3515 51.754 30.6715 52.706C30.0141 53.6353 29.6855 55.12 29.6855 57.16C29.6855 59.2 30.0141 60.696 30.6715 61.648C31.3515 62.5773 32.3601 63.042 33.6975 63.042C35.0348 63.042 36.0321 62.5773 36.6895 61.648C37.3695 60.696 37.7095 59.2 37.7095 57.16C37.7095 55.12 37.3695 53.6353 36.6895 52.706ZM40.0215 63.96C38.5255 65.5467 36.4175 66.34 33.6975 66.34C30.9775 66.34 28.8581 65.5467 27.3395 63.96C25.8435 62.3507 25.0955 60.084 25.0955 57.16C25.0955 54.236 25.8435 51.9807 27.3395 50.394C28.8581 48.7847 30.9775 47.98 33.6975 47.98C36.4175 47.98 38.5255 48.7847 40.0215 50.394C41.5401 51.9807 42.2995 54.236 42.2995 57.16C42.2995 60.084 41.5401 62.3507 40.0215 63.96ZM51.3509 66.34C49.3562 66.34 47.9056 65.796 46.9989 64.708C46.0922 63.5973 45.6389 61.7273 45.6389 59.098V50.258C45.6389 49.7367 45.8316 49.2833 46.2169 48.898C46.6022 48.5127 47.0556 48.32 47.5769 48.32H48.1209C48.6422 48.32 49.0956 48.5127 49.4809 48.898C49.8662 49.2833 50.0589 49.7367 50.0589 50.258V58.622C50.0589 60.2087 50.2742 61.308 50.7049 61.92C51.1356 62.532 51.8609 62.838 52.8809 62.838C53.8102 62.838 54.6716 62.4413 55.4649 61.648C56.2809 60.8547 56.6889 60.0047 56.6889 59.098V50.258C56.6889 49.7367 56.8816 49.2833 57.2669 48.898C57.6522 48.5127 58.1056 48.32 58.6269 48.32H59.3069C59.8282 48.32 60.2702 48.5127 60.6329 48.898C61.0182 49.2833 61.2109 49.7367 61.2109 50.258V64.062C61.2109 64.5833 61.0182 65.0367 60.6329 65.422C60.2702 65.8073 59.8282 66 59.3069 66H58.8649C58.3209 66 57.8562 65.8187 57.4709 65.456C57.1082 65.0707 56.9156 64.606 56.8929 64.062L56.8589 63.824C56.8589 63.8013 56.8476 63.79 56.8249 63.79C56.8022 63.79 56.7796 63.8013 56.7569 63.824C55.2156 65.5013 53.4136 66.34 51.3509 66.34ZM71.9828 58.86C69.6028 58.3387 67.9028 57.6247 66.8828 56.718C65.8854 55.8113 65.3868 54.6327 65.3868 53.182C65.3868 51.55 65.9874 50.2807 67.1888 49.374C68.4128 48.4447 70.2148 47.98 72.5948 47.98C74.0908 47.98 75.5754 48.116 77.0488 48.388C77.5474 48.4787 77.9441 48.728 78.2388 49.136C78.5561 49.5213 78.7148 49.9747 78.7148 50.496C78.7148 50.9267 78.5448 51.278 78.2048 51.55C77.8648 51.7993 77.4794 51.8673 77.0488 51.754C75.7794 51.4367 74.4421 51.278 73.0368 51.278C70.9968 51.278 69.9768 51.8447 69.9768 52.978C69.9768 53.522 70.1694 53.9753 70.5548 54.338C70.9401 54.7007 71.5974 54.984 72.5268 55.188C75.1334 55.7093 76.9128 56.412 77.8648 57.296C78.8394 58.18 79.3268 59.472 79.3268 61.172C79.3268 62.804 78.7148 64.0733 77.4908 64.98C76.2668 65.8867 74.4874 66.34 72.1528 66.34C70.6341 66.34 69.0814 66.1587 67.4948 65.796C66.9961 65.6827 66.5881 65.422 66.2708 65.014C65.9534 64.5833 65.7948 64.096 65.7948 63.552C65.7948 63.1213 65.9648 62.7927 66.3048 62.566C66.6674 62.3393 67.0528 62.2827 67.4608 62.396C68.9341 62.804 70.3281 63.008 71.6428 63.008C73.7054 63.008 74.7368 62.396 74.7368 61.172C74.7368 60.5827 74.5328 60.118 74.1248 59.778C73.7394 59.438 73.0254 59.132 71.9828 58.86ZM90.7024 51.142C89.5464 51.142 88.6511 51.4707 88.0164 52.128C87.4044 52.7627 87.0191 53.794 86.8604 55.222C86.8604 55.4033 86.9511 55.494 87.1324 55.494H93.7964C93.9778 55.494 94.0684 55.4033 94.0684 55.222C93.9778 52.502 92.8558 51.142 90.7024 51.142ZM91.5524 66.34C88.5831 66.34 86.2938 65.5693 84.6844 64.028C83.0978 62.464 82.3044 60.1747 82.3044 57.16C82.3044 54.168 83.0184 51.89 84.4464 50.326C85.8744 48.762 87.9371 47.98 90.6344 47.98C95.6664 47.98 98.2504 50.836 98.3864 56.548C98.4091 57.092 98.2164 57.5453 97.8084 57.908C97.4004 58.2707 96.9244 58.452 96.3804 58.452H87.0984C86.8944 58.452 86.8151 58.554 86.8604 58.758C87.0191 60.2767 87.5178 61.3873 88.3564 62.09C89.2178 62.77 90.4644 63.11 92.0964 63.11C93.1164 63.11 94.2498 62.94 95.4964 62.6C95.9044 62.4867 96.2784 62.5547 96.6184 62.804C96.9811 63.0533 97.1624 63.3933 97.1624 63.824C97.1624 64.3453 97.0038 64.81 96.6864 65.218C96.3918 65.6033 95.9951 65.8413 95.4964 65.932C94.2271 66.204 92.9124 66.34 91.5524 66.34ZM108.141 58.86C105.761 58.3387 104.061 57.6247 103.041 56.718C102.044 55.8113 101.545 54.6327 101.545 53.182C101.545 51.55 102.146 50.2807 103.347 49.374C104.571 48.4447 106.373 47.98 108.753 47.98C110.249 47.98 111.734 48.116 113.207 48.388C113.706 48.4787 114.102 48.728 114.397 49.136C114.714 49.5213 114.873 49.9747 114.873 50.496C114.873 50.9267 114.703 51.278 114.363 51.55C114.023 51.7993 113.638 51.8673 113.207 51.754C111.938 51.4367 110.6 51.278 109.195 51.278C107.155 51.278 106.135 51.8447 106.135 52.978C106.135 53.522 106.328 53.9753 106.713 54.338C107.098 54.7007 107.756 54.984 108.685 55.188C111.292 55.7093 113.071 56.412 114.023 57.296C114.998 58.18 115.485 59.472 115.485 61.172C115.485 62.804 114.873 64.0733 113.649 64.98C112.425 65.8867 110.646 66.34 108.311 66.34C106.792 66.34 105.24 66.1587 103.653 65.796C103.154 65.6827 102.746 65.422 102.429 65.014C102.112 64.5833 101.953 64.096 101.953 63.552C101.953 63.1213 102.123 62.7927 102.463 62.566C102.826 62.3393 103.211 62.2827 103.619 62.396C105.092 62.804 106.486 63.008 107.801 63.008C109.864 63.008 110.895 62.396 110.895 61.172C110.895 60.5827 110.691 60.118 110.283 59.778C109.898 59.438 109.184 59.132 108.141 58.86Z" fill="white"/>
<path d="M3 72.5H128.004" stroke="white"/>
<path d="M127.5 73.0038L127.5 12" stroke="white"/>
</svg>
